<svg width="392" height="319" viewBox="0 0 392 319" fill="none" xmlns="http://www.w3.org/2000/svg">
<mask id="path-1-inside-1_2121_3087" fill="white">
<path fill-rule="evenodd" clip-rule="evenodd" d="M10.5 0C4.97715 0 0.5 4.47714 0.5 9.99999V273C0.5 278.523 4.97716 283 10.5 283H31.5994C38.4192 295.781 59.512 333.548 59.512 311.751C59.512 296.103 69.6571 287.428 77.7365 283H381.5C387.023 283 391.5 278.523 391.5 273V10C391.5 4.47715 387.023 0 381.5 0H10.5Z"/>
</mask>
<path fill-rule="evenodd" clip-rule="evenodd" d="M10.5 0C4.97715 0 0.5 4.47714 0.5 9.99999V273C0.5 278.523 4.97716 283 10.5 283H31.5994C38.4192 295.781 59.512 333.548 59.512 311.751C59.512 296.103 69.6571 287.428 77.7365 283H381.5C387.023 283 391.5 278.523 391.5 273V10C391.5 4.47715 387.023 0 381.5 0H10.5Z" fill="#1A3E2A"/>
<path d="M31.5994 283L32.4817 282.529L32.1993 282H31.5994V283ZM77.7365 283V282H77.4804L77.2559 282.123L77.7365 283ZM1.5 9.99999C1.5 5.02943 5.52944 1 10.5 1V-1C4.42487 -1 -0.5 3.92486 -0.5 9.99999H1.5ZM1.5 273V9.99999H-0.5V273H1.5ZM10.5 282C5.52944 282 1.5 277.971 1.5 273H-0.5C-0.5 279.075 4.42487 284 10.5 284V282ZM31.5994 282H10.5V284H31.5994V282ZM58.512 311.751C58.512 314.45 58.176 316.014 57.7249 316.8C57.5161 317.164 57.3204 317.296 57.1776 317.348C57.0286 317.402 56.794 317.422 56.4179 317.3C55.618 317.041 54.5265 316.254 53.1901 314.9C51.8815 313.575 50.4354 311.809 48.9182 309.749C42.8407 301.5 35.8928 288.922 32.4817 282.529L30.7172 283.471C34.1258 289.859 41.1343 302.555 47.308 310.935C48.8536 313.033 50.3638 314.884 51.7668 316.305C53.1419 317.698 54.5174 318.787 55.8015 319.203C56.4674 319.419 57.179 319.476 57.8633 319.227C58.5539 318.975 59.0785 318.46 59.4597 317.796C60.1888 316.525 60.512 314.502 60.512 311.751H58.512ZM77.2559 282.123C69.0255 286.634 58.512 295.579 58.512 311.751H60.512C60.512 296.628 70.2887 288.222 78.2171 283.877L77.2559 282.123ZM381.5 282H77.7365V284H381.5V282ZM390.5 273C390.5 277.971 386.471 282 381.5 282V284C387.575 284 392.5 279.075 392.5 273H390.5ZM390.5 10V273H392.5V10H390.5ZM381.5 1C386.471 1 390.5 5.02944 390.5 10H392.5C392.5 3.92487 387.575 -1 381.5 -1V1ZM10.5 1H381.5V-1H10.5V1Z" fill="#36FF90" mask="url(#path-1-inside-1_2121_3087)"/>
</svg>
