<svg width="365" height="294" viewBox="0 0 390 320" fill="none" xmlns="http://www.w3.org/2000/svg">
<mask id="path-1-inside-1_369_129" fill="white">
<path fill-rule="evenodd" clip-rule="evenodd" d="M10 0C4.47715 0 0 4.47714 0 9.99999V273C0 278.523 4.47716 283 10 283H31.0994C37.9192 295.781 59.012 333.548 59.012 311.751C59.012 296.103 69.1571 287.428 77.2365 283H381C386.523 283 391 278.523 391 273V10C391 4.47715 386.523 0 381 0H10Z"/>
</mask>
<path fill-rule="evenodd" clip-rule="evenodd" d="M10 0C4.47715 0 0 4.47714 0 9.99999V273C0 278.523 4.47716 283 10 283H31.0994C37.9192 295.781 59.012 333.548 59.012 311.751C59.012 296.103 69.1571 287.428 77.2365 283H381C386.523 283 391 278.523 391 273V10C391 4.47715 386.523 0 381 0H10Z" fill="#1A3E2A"/>
<path d="M31.0994 283L31.9817 282.529L31.6993 282H31.0994V283ZM77.2365 283V282H76.9804L76.7559 282.123L77.2365 283ZM1 9.99999C1 5.02943 5.02944 1 10 1V-1C3.92487 -1 -1 3.92486 -1 9.99999H1ZM1 273V9.99999H-1V273H1ZM10 282C5.02944 282 1 277.971 1 273H-1C-1 279.075 3.92487 284 10 284V282ZM31.0994 282H10V284H31.0994V282ZM58.012 311.751C58.012 314.45 57.676 316.014 57.2249 316.8C57.0161 317.164 56.8204 317.296 56.6776 317.348C56.5286 317.402 56.294 317.422 55.9179 317.3C55.118 317.041 54.0265 316.254 52.6901 314.9C51.3815 313.575 49.9354 311.809 48.4182 309.749C42.3407 301.5 35.3928 288.922 31.9817 282.529L30.2172 283.471C33.6258 289.859 40.6343 302.555 46.808 310.935C48.3536 313.033 49.8638 314.884 51.2668 316.305C52.6419 317.698 54.0174 318.787 55.3015 319.203C55.9674 319.419 56.679 319.476 57.3633 319.227C58.0539 318.975 58.5785 318.46 58.9597 317.796C59.6888 316.525 60.012 314.502 60.012 311.751H58.012ZM76.7559 282.123C68.5255 286.634 58.012 295.579 58.012 311.751H60.012C60.012 296.628 69.7887 288.222 77.7171 283.877L76.7559 282.123ZM381 282H77.2365V284H381V282ZM390 273C390 277.971 385.971 282 381 282V284C387.075 284 392 279.075 392 273H390ZM390 10V273H392V10H390ZM381 1C385.971 1 390 5.02944 390 10H392C392 3.92487 387.075 -1 381 -1V1ZM10 1H381V-1H10V1Z" fill="#36FF90" mask="url(#path-1-inside-1_369_129)"/>
</svg>
