<svg width="32" height="32" viewBox="0 0 32 32" fill="none" xmlns="http://www.w3.org/2000/svg">
<path d="M21.4745 11.3334C20.869 11.3334 20.3348 10.9374 20.1588 10.358L17.3157 0.998093C16.9207 -0.302404 15.0795 -0.302407 14.6844 0.99809L11.8413 10.358C11.6654 10.9374 11.1312 11.3334 10.5257 11.3334H1.96078C0.622807 11.3334 0.0729795 13.0505 1.16209 13.8277L8.18815 18.8414C8.67082 19.1858 8.87832 19.8009 8.70295 20.3673L5.9567 29.2371C5.56114 30.5147 7.03753 31.5478 8.10227 30.7384L15.1687 25.3671C15.6601 24.9935 16.3403 24.9932 16.832 25.3664L23.9188 30.7446C24.9837 31.5528 26.4589 30.5197 26.0635 29.2426L23.3153 20.3666C23.14 19.8005 23.3472 19.1858 23.8293 18.8413L30.8446 13.8271C31.9327 13.0493 31.3825 11.3334 30.045 11.3334H21.4745Z" fill="white"/>
</svg>
