<svg width="31" height="32" viewBox="0 0 31 32" fill="none" xmlns="http://www.w3.org/2000/svg">
<path d="M20.9747 11.3334C20.3692 11.3334 19.835 10.9374 19.6591 10.358L16.816 0.998093C16.4209 -0.302404 14.5797 -0.302407 14.1847 0.99809L11.3416 10.358C11.1656 10.9374 10.6314 11.3334 10.0259 11.3334H1.46103C0.123051 11.3334 -0.426776 13.0505 0.662337 13.8277L7.6884 18.8414C8.17107 19.1858 8.37857 19.8009 8.20319 20.3673L5.45695 29.2371C5.06139 30.5147 6.53778 31.5478 7.60251 30.7384L14.6689 25.3671C15.1604 24.9935 15.8405 24.9932 16.3322 25.3664L23.419 30.7446C24.484 31.5528 25.9591 30.5197 25.5637 29.2426L22.8156 20.3666C22.6403 19.8005 22.8474 19.1858 23.3295 18.8413L30.3448 13.8271C31.4329 13.0493 30.8827 11.3334 29.5453 11.3334H20.9747Z" fill="#FFC201"/>
</svg>
