<svg width="1728" height="1103" viewBox="0 0 1728 1103" fill="none" xmlns="http://www.w3.org/2000/svg">
<g filter="url(#filter0_f_3193_341)">
<path d="M1777.27 -19.5633C423.829 465.616 -223.226 -253.176 -82.2498 -19.5633C58.7266 214.049 -219.226 1152.82 -82.2498 714.459C54.7266 276.093 1708.83 475.169 1881.33 610.404C2053.83 745.638 3130.72 -504.743 1777.27 -19.5633Z" fill="url(#paint0_linear_3193_341)" fill-opacity="0.27"/>
</g>
<g filter="url(#filter1_f_3193_341)">
<path d="M-48.8172 203.267C1304.63 688.446 1951.68 -30.346 1810.71 203.267C1669.73 436.879 1947.68 1375.65 1810.71 937.289C1673.73 498.923 19.6273 697.999 -152.873 833.234C-325.373 968.468 -1402.26 -281.913 -48.8172 203.267Z" fill="url(#paint1_linear_3193_341)" fill-opacity="0.68"/>
</g>
<defs>
<filter id="filter0_f_3193_341" x="-171.373" y="-182" width="2671.83" height="1061.54" filterUnits="userSpaceOnUse" color-interpolation-filters="sRGB">
<feFlood flood-opacity="0" result="BackgroundImageFix"/>
<feBlend mode="normal" in="SourceGraphic" in2="BackgroundImageFix" result="shape"/>
<feGaussianBlur stdDeviation="25" result="effect1_foregroundBlur_3193_341"/>
</filter>
<filter id="filter1_f_3193_341" x="-772" y="40.8298" width="2671.83" height="1061.54" filterUnits="userSpaceOnUse" color-interpolation-filters="sRGB">
<feFlood flood-opacity="0" result="BackgroundImageFix"/>
<feBlend mode="normal" in="SourceGraphic" in2="BackgroundImageFix" result="shape"/>
<feGaussianBlur stdDeviation="25" result="effect1_foregroundBlur_3193_341"/>
</filter>
<linearGradient id="paint0_linear_3193_341" x1="1777.27" y1="347.448" x2="-82.258" y2="347.448" gradientUnits="userSpaceOnUse">
<stop stop-color="#8AFFBE" stop-opacity="0"/>
<stop offset="1" stop-color="#FFC201"/>
</linearGradient>
<linearGradient id="paint1_linear_3193_341" x1="-48.8095" y1="570.278" x2="1810.71" y2="570.278" gradientUnits="userSpaceOnUse">
<stop stop-color="#8AFFBE" stop-opacity="0"/>
<stop offset="1" stop-color="#FFC201"/>
</linearGradient>
</defs>
</svg>
