<svg width="88" height="20" viewBox="0 0 88 20" fill="none" xmlns="http://www.w3.org/2000/svg">
<path fill-rule="evenodd" clip-rule="evenodd" d="M20.7539 0.429461C20.2594 -0.0500921 19.4584 -0.049302 18.9649 0.431226C18.1156 1.25815 16.8233 2.99102 15.9905 5.30754C15.7042 5.14382 15.4141 4.97903 15.1225 4.81336C14.9794 4.73212 14.836 4.65066 14.6925 4.56902C13.7477 4.03147 12.789 3.48033 11.8539 2.90123C11.4392 2.64441 10.9089 2.64441 10.4942 2.90123C9.55904 3.48033 8.60038 4.03147 7.65557 4.56902C7.51208 4.65065 7.36868 4.73211 7.22565 4.81335C6.93399 4.97902 6.64386 5.14381 6.35763 5.30754C5.52482 2.99102 4.23246 1.25815 3.38318 0.431226C2.88967 -0.049302 2.08871 -0.0500921 1.59419 0.429461C1.09967 0.909015 1.09886 1.68731 1.59237 2.16784C2.24245 2.80081 3.45664 4.42076 4.13889 6.62591C2.92106 7.39477 1.8095 8.21216 1.10917 9.09971C-0.0590515 10.5802 -0.114664 12.6562 0.0952568 14.3444C0.313715 16.1011 0.868315 17.8093 1.31916 18.8664C1.48099 19.2458 1.82714 19.5216 2.24174 19.6015C2.65634 19.6814 3.08461 19.5548 3.38318 19.2641C4.69573 17.9861 7.16689 14.4289 7.16689 9.84765C7.16689 9.13596 7.1071 8.44978 7.00183 7.79431C7.47943 7.51691 7.97896 7.23315 8.49673 6.93903C8.64107 6.85704 8.78682 6.77424 8.93392 6.69055C9.66258 6.27598 10.4187 5.84251 11.174 5.38885C11.9294 5.84251 12.6855 6.27598 13.4142 6.69055C13.5612 6.77424 13.707 6.85704 13.8513 6.93903C14.3691 7.23315 14.8686 7.51691 15.3462 7.79431C15.241 8.44978 15.1812 9.13596 15.1812 9.84765C15.1812 14.4289 17.6523 17.9861 18.9649 19.2641C19.2635 19.5548 19.6917 19.6814 20.1063 19.6015C20.5209 19.5216 20.8671 19.2458 21.0289 18.8664C21.4798 17.8093 22.0344 16.1011 22.2528 14.3444C22.4627 12.6562 22.4071 10.5802 21.2389 9.09971C20.5386 8.21216 19.427 7.39477 18.2092 6.62591C18.8914 4.42076 20.1056 2.80081 20.7557 2.16784C21.2492 1.68731 21.2484 0.909015 20.7539 0.429461ZM17.7266 9.28254C18.4094 9.76236 18.9153 10.1954 19.2311 10.5956C19.7616 11.2679 19.935 12.4898 19.7411 14.0494C19.6689 14.6299 19.5517 15.2101 19.4131 15.7551C18.5526 14.3225 17.7112 12.2493 17.7112 9.84765C17.7112 9.65726 17.7165 9.46884 17.7266 9.28254ZM4.62145 9.28254C4.63161 9.46884 4.63688 9.65726 4.63688 9.84765C4.63688 12.2493 3.7955 14.3225 2.93502 15.7551C2.79633 15.2101 2.67918 14.6299 2.607 14.0494C2.41306 12.4898 2.58644 11.2679 3.11695 10.5956C3.43274 10.1954 3.93871 9.76236 4.62145 9.28254Z" fill="white"/>
<path d="M33.3292 17.6697C31.4565 17.6697 29.9397 17.0597 28.9323 15.8257C28.5616 15.3717 28.7651 14.7195 29.2781 14.4361V14.4361C29.8125 14.1408 30.4665 14.3748 30.9121 14.7922C31.5061 15.3485 32.2814 15.5704 33.2292 15.5704C34.6287 15.5704 35.7033 14.9957 35.7033 13.921C35.7033 11.347 28.6808 13.2963 28.6808 8.62295C28.6808 6.47372 30.5802 4.89929 33.2542 4.89929C35.0422 4.89929 36.3822 5.54808 37.2499 6.51774C37.6381 6.95154 37.4463 7.60326 36.9396 7.88992V7.88992C36.4048 8.19252 35.7378 7.9467 35.2522 7.57021C34.7215 7.15881 34.0395 6.99853 33.3042 6.99853C32.1546 6.99853 31.1549 7.59832 31.1549 8.57296C31.1549 11.0721 38.1774 9.24772 38.1774 13.8711C38.1774 16.1952 35.9282 17.6697 33.3292 17.6697Z" fill="white"/>
<path d="M44.6563 17.7197C41.6074 17.7197 39.9829 15.7954 39.9829 12.9964V7.29842V5.1492V3.2124C39.9829 2.52919 40.5368 1.97534 41.22 1.97534V1.97534C41.9032 1.97534 42.4571 2.52919 42.4571 3.2124V5.1492H46.0807C46.6742 5.1492 47.1554 5.63032 47.1554 6.22381V6.22381C47.1554 6.8173 46.6742 7.29842 46.0807 7.29842H42.4571V12.9214C42.4571 14.5208 43.4067 15.4705 44.8812 15.4705C45.1905 15.4705 45.511 15.4256 45.8225 15.346C46.4201 15.1933 47.1554 15.5986 47.1554 16.2154V16.2154C47.1554 16.7187 46.9103 17.2044 46.4409 17.3858C45.8979 17.5958 45.2602 17.7197 44.6563 17.7197Z" fill="white"/>
<path d="M54.4635 17.6947C50.9147 17.6947 48.3157 14.7957 48.3157 11.247C48.3157 7.74826 51.1147 4.84931 54.8383 4.84931C58.537 4.84931 61.361 7.59832 61.361 11.247V16.2202C61.361 16.8689 60.8351 17.3948 60.1864 17.3948V17.3948C59.5377 17.3948 59.0118 16.8689 59.0118 16.2202V15.2456C58.0872 16.745 56.4627 17.6947 54.4635 17.6947ZM54.8383 15.3455C57.1375 15.3455 58.8869 13.4962 58.8869 11.272C58.8869 9.0228 57.1375 7.17347 54.8383 7.17347C52.5642 7.17347 50.7898 9.0228 50.7898 11.272C50.7898 13.4962 52.5642 15.3455 54.8383 15.3455Z" fill="white"/>
<path d="M69.5284 17.6697C66.0046 17.7197 63.1307 14.7957 63.1307 11.247C63.1307 7.72327 66.0046 4.82432 69.5284 4.84931C71.4169 4.84931 73.1822 5.57171 74.3654 7.10529C74.7563 7.61195 74.535 8.32074 73.9769 8.63383V8.63383C73.3989 8.95806 72.6812 8.72713 72.2096 8.26148C71.5014 7.56216 70.5734 7.19846 69.5284 7.19846C67.3791 7.19846 65.6048 9.0228 65.6048 11.247C65.6048 13.4962 67.3791 15.3455 69.5284 15.3455C70.5784 15.3455 71.5104 14.9783 72.2198 14.2724C72.6853 13.8093 73.3941 13.5775 73.9697 13.8934V13.8934C74.5311 14.2015 74.7577 14.9098 74.3684 15.4183C73.1851 16.9637 71.4185 17.6697 69.5284 17.6697Z" fill="white"/>
<path d="M82.2224 17.6697C78.4988 17.6697 75.7248 14.9707 75.7248 11.197C75.7248 7.67329 78.2488 4.79933 81.9225 4.79933C85.6212 4.79933 87.9204 7.47336 87.9204 10.8971V10.8971C87.9204 11.4492 87.4728 11.8968 86.9207 11.8968H78.1239C78.3988 13.996 79.9982 15.4705 82.1974 15.4705C83.3372 15.4705 84.3904 15.095 85.1483 14.3222C85.5597 13.9028 86.1897 13.686 86.7124 13.9542V13.9542C87.2417 14.2258 87.4591 14.8832 87.1019 15.3589C85.9677 16.8694 84.2462 17.6697 82.2224 17.6697ZM78.2238 10.2973H85.4463C85.3463 8.34805 83.9218 7.02352 81.8975 7.02352C79.8233 7.02352 78.4738 8.473 78.2238 10.2973Z" fill="white"/>
</svg>
