<svg width="63" height="64" viewBox="0 0 63 64" fill="none" xmlns="http://www.w3.org/2000/svg">
<path d="M0 14.4986C0 6.8686 6.18532 0.683289 13.8153 0.683289H62.8587V49.7267C62.8587 57.3567 56.6734 63.542 49.0434 63.542H0V14.4986Z" fill="url(#paint0_linear_2582_869)"/>
<g clip-path="url(#clip0_2582_869)">
<path d="M46.3965 17.1477H16.4638C14.4059 17.1477 12.7409 18.8314 12.7409 20.8893L12.7222 43.3388C12.7222 45.3967 14.4059 47.0804 16.4638 47.0804H46.3965C48.4544 47.0804 50.1381 45.3967 50.1381 43.3388V20.8893C50.1381 18.8314 48.4544 17.1477 46.3965 17.1477ZM46.3965 24.6309L31.4302 33.9849L16.4638 24.6309V20.8893L31.4302 30.2433L46.3965 20.8893V24.6309Z" fill="black"/>
</g>
<defs>
<linearGradient id="paint0_linear_2582_869" x1="31.4294" y1="0.683289" x2="31.4294" y2="63.542" gradientUnits="userSpaceOnUse">
<stop stop-color="#FFC201"/>
<stop offset="1" stop-color="#997401"/>
</linearGradient>
<clipPath id="clip0_2582_869">
<path d="M8.97983 23.4784C8.97983 15.8485 15.1651 9.66312 22.7951 9.66312H53.8789V40.7469C53.8789 48.3769 47.6936 54.5622 40.0636 54.5622H8.97983V23.4784Z" fill="white"/>
</clipPath>
</defs>
</svg>
