<svg width="250" height="250" viewBox="0 0 185 185" fill="none" xmlns="http://www.w3.org/2000/svg">
<path d="M92.5455 107.831C90.3606 107.831 88.5304 107.092 87.055 105.613C85.5744 104.14 84.8341 102.312 84.8341 100.131C84.8341 97.949 85.5744 96.1188 87.055 94.6404C88.5304 93.167 90.3606 92.4304 92.5455 92.4304C94.7304 92.4304 96.5631 93.167 98.0437 94.6404C99.5191 96.1188 100.257 97.949 100.257 100.131C100.257 102.312 99.5191 104.14 98.0437 105.613C96.5631 107.092 94.7304 107.831 92.5455 107.831ZM61.7 107.831C59.5151 107.831 57.6824 107.092 56.2018 105.613C54.7264 104.14 53.9887 102.312 53.9887 100.131C53.9887 97.949 54.7264 96.1188 56.2018 94.6404C57.6824 93.167 59.5151 92.4304 61.7 92.4304C63.8849 92.4304 65.7177 93.167 67.1982 94.6404C68.6737 96.1188 69.4114 97.949 69.4114 100.131C69.4114 102.312 68.6737 104.14 67.1982 105.613C65.7177 107.092 63.8849 107.831 61.7 107.831ZM123.391 107.831C121.206 107.831 119.376 107.092 117.9 105.613C116.42 104.14 115.68 102.312 115.68 100.131C115.68 97.949 116.42 96.1188 117.9 94.6404C119.376 93.167 121.206 92.4304 123.391 92.4304C125.576 92.4304 127.406 93.167 128.881 94.6404C130.362 96.1188 131.102 97.949 131.102 100.131C131.102 102.312 130.362 104.14 128.881 105.613C127.406 107.092 125.576 107.831 123.391 107.831ZM92.5455 138.633C90.3606 138.633 88.5304 137.893 87.055 136.415C85.5744 134.941 84.8341 133.114 84.8341 130.932C84.8341 128.75 85.5744 126.923 87.055 125.45C88.5304 123.971 90.3606 123.232 92.5455 123.232C94.7304 123.232 96.5631 123.971 98.0437 125.45C99.5191 126.923 100.257 128.75 100.257 130.932C100.257 133.114 99.5191 134.941 98.0437 136.415C96.5631 137.893 94.7304 138.633 92.5455 138.633ZM61.7 138.633C59.5151 138.633 57.6824 137.893 56.2018 136.415C54.7264 134.941 53.9887 133.114 53.9887 130.932C53.9887 128.75 54.7264 126.923 56.2018 125.45C57.6824 123.971 59.5151 123.232 61.7 123.232C63.8849 123.232 65.7177 123.971 67.1982 125.45C68.6737 126.923 69.4114 128.75 69.4114 130.932C69.4114 133.114 68.6737 134.941 67.1982 136.415C65.7177 137.893 63.8849 138.633 61.7 138.633ZM123.391 138.633C121.206 138.633 119.376 137.893 117.9 136.415C116.42 134.941 115.68 133.114 115.68 130.932C115.68 128.75 116.42 126.923 117.9 125.45C119.376 123.971 121.206 123.232 123.391 123.232C125.576 123.232 127.406 123.971 128.881 125.45C130.362 126.923 131.102 128.75 131.102 130.932C131.102 133.114 130.362 134.941 128.881 136.415C127.406 137.893 125.576 138.633 123.391 138.633ZM38.5659 169.434C34.3247 169.434 30.6926 167.927 27.6698 164.914C24.652 161.895 23.1432 158.268 23.1432 154.033V46.2282C23.1432 41.993 24.652 38.3687 27.6698 35.3553C30.6926 32.3367 34.3247 30.8275 38.5659 30.8275H46.2773V23.1271C46.2773 20.9453 47.015 19.1152 48.4905 17.6368C49.971 16.1634 51.8038 15.4268 53.9887 15.4268C56.1735 15.4268 58.0063 16.1634 59.4869 17.6368C60.9623 19.1152 61.7 20.9453 61.7 23.1271V30.8275H123.391V23.1271C123.391 20.9453 124.131 19.1152 125.612 17.6368C127.087 16.1634 128.917 15.4268 131.102 15.4268C133.287 15.4268 135.117 16.1634 136.593 17.6368C138.073 19.1152 138.814 20.9453 138.814 23.1271V30.8275H146.525C150.766 30.8275 154.398 32.3367 157.421 35.3553C160.439 38.3687 161.948 41.993 161.948 46.2282V154.033C161.948 158.268 160.439 161.895 157.421 164.914C154.398 167.927 150.766 169.434 146.525 169.434H38.5659ZM38.5659 154.033H146.525V77.0296H38.5659V154.033Z" fill="url(#paint0_linear_514_245)"/>
<defs>
<linearGradient id="paint0_linear_514_245" x1="92.5455" y1="15.4268" x2="92.5455" y2="169.434" gradientUnits="userSpaceOnUse">
<stop stop-color="#FFC201"/>
<stop offset="1" stop-color="#FFE9A4"/>
</linearGradient>
</defs>
</svg>
