<svg width="176" height="195" viewBox="0 0 176 195" fill="none" xmlns="http://www.w3.org/2000/svg">
<rect width="176" height="195" fill="#2F2034"/>
<g id="Landing Page" clip-path="url(#clip0_212_647)">
<rect width="1728" height="7757" transform="translate(-776 -2136)" fill="#112018"/>
<g id="Buttons Attend, Talk, Join">
<g id="Button">
<g id="Rectangle 1">
<g id="Rectangle 1_2" filter="url(#filter0_d_212_647)">
<mask id="path-1-inside-1_212_647" fill="white">
<path d="M-98 -164C-98 -172.284 -91.2843 -179 -83 -179H259C267.284 -179 274 -172.284 274 -164V201C274 209.284 267.284 216 259 216H-83C-91.2843 216 -98 209.284 -98 201V-164Z"/>
</mask>
<path d="M-98 -164C-98 -172.284 -91.2843 -179 -83 -179H259C267.284 -179 274 -172.284 274 -164V201C274 209.284 267.284 216 259 216H-83C-91.2843 216 -98 209.284 -98 201V-164Z" fill="url(#paint0_linear_212_647)" fill-opacity="0.2" shape-rendering="crispEdges"/>
<path d="M-98 -164C-98 -173.389 -90.3888 -181 -81 -181H257C266.389 -181 274 -173.389 274 -164C274 -171.18 267.284 -177 259 -177H-83C-91.2843 -177 -98 -171.18 -98 -164ZM274 216H-98H274ZM-98 216V-179V216ZM274 -179V216V-179Z" fill="#3EB372" mask="url(#path-1-inside-1_212_647)"/>
</g>
</g>
<g id="Calendar month">
<path id="Vector" d="M88.0574 116.789C85.3054 116.789 83.0001 115.858 81.1417 113.996C79.2768 112.14 78.3443 109.838 78.3443 107.09C78.3443 104.342 79.2768 102.037 81.1417 100.175C83.0001 98.3188 85.3054 97.3909 88.0574 97.3909C90.8095 97.3909 93.118 98.3188 94.9829 100.175C96.8413 102.037 97.7706 104.342 97.7706 107.09C97.7706 109.838 96.8413 112.14 94.9829 113.996C93.118 115.858 90.8095 116.789 88.0574 116.789ZM49.205 116.789C46.4529 116.789 44.1444 115.858 42.2795 113.996C40.4211 112.14 39.4919 109.838 39.4919 107.09C39.4919 104.342 40.4211 102.037 42.2795 100.175C44.1444 98.3188 46.4529 97.3909 49.205 97.3909C51.957 97.3909 54.2655 98.3188 56.1304 100.175C57.9889 102.037 58.9181 104.342 58.9181 107.09C58.9181 109.838 57.9889 112.14 56.1304 113.996C54.2655 115.858 51.957 116.789 49.205 116.789ZM126.91 116.789C124.158 116.789 121.853 115.858 119.994 113.996C118.129 112.14 117.197 109.838 117.197 107.09C117.197 104.342 118.129 102.037 119.994 100.175C121.853 98.3188 124.158 97.3909 126.91 97.3909C129.662 97.3909 131.967 98.3188 133.826 100.175C135.691 102.037 136.623 104.342 136.623 107.09C136.623 109.838 135.691 112.14 133.826 113.996C131.967 115.858 129.662 116.789 126.91 116.789ZM88.0574 155.586C85.3054 155.586 83.0001 154.655 81.1417 152.793C79.2768 150.937 78.3443 148.635 78.3443 145.887C78.3443 143.139 79.2768 140.837 81.1417 138.981C83.0001 137.119 85.3054 136.188 88.0574 136.188C90.8095 136.188 93.118 137.119 94.9829 138.981C96.8413 140.837 97.7706 143.139 97.7706 145.887C97.7706 148.635 96.8413 150.937 94.9829 152.793C93.118 154.655 90.8095 155.586 88.0574 155.586ZM49.205 155.586C46.4529 155.586 44.1444 154.655 42.2795 152.793C40.4211 150.937 39.4919 148.635 39.4919 145.887C39.4919 143.139 40.4211 140.837 42.2795 138.981C44.1444 137.119 46.4529 136.188 49.205 136.188C51.957 136.188 54.2655 137.119 56.1304 138.981C57.9889 140.837 58.9181 143.139 58.9181 145.887C58.9181 148.635 57.9889 150.937 56.1304 152.793C54.2655 154.655 51.957 155.586 49.205 155.586ZM126.91 155.586C124.158 155.586 121.853 154.655 119.994 152.793C118.129 150.937 117.197 148.635 117.197 145.887C117.197 143.139 118.129 140.837 119.994 138.981C121.853 137.119 124.158 136.188 126.91 136.188C129.662 136.188 131.967 137.119 133.826 138.981C135.691 140.837 136.623 143.139 136.623 145.887C136.623 148.635 135.691 150.937 133.826 152.793C131.967 154.655 129.662 155.586 126.91 155.586ZM20.0656 194.383C14.7234 194.383 10.1485 192.486 6.341 188.69C2.53994 184.888 0.639404 180.319 0.639404 174.985V39.1954C0.639404 33.8608 2.53994 29.2957 6.341 25.5001C10.1485 21.698 14.7234 19.7969 20.0656 19.7969H29.7787V10.0977C29.7787 7.34957 30.708 5.04438 32.5664 3.18212C34.4313 1.32633 36.7398 0.398438 39.4919 0.398438C42.2439 0.398438 44.5524 1.32633 46.4173 3.18212C48.2758 5.04438 49.205 7.34957 49.205 10.0977V19.7969H126.91V10.0977C126.91 7.34957 127.842 5.04438 129.707 3.18212C131.566 1.32633 133.871 0.398438 136.623 0.398438C139.375 0.398438 141.68 1.32633 143.539 3.18212C145.404 5.04438 146.336 7.34957 146.336 10.0977V19.7969H156.049C161.391 19.7969 165.966 21.698 169.774 25.5001C173.575 29.2957 175.475 33.8608 175.475 39.1954V174.985C175.475 180.319 173.575 184.888 169.774 188.69C165.966 192.486 161.391 194.383 156.049 194.383H20.0656ZM20.0656 174.985H156.049V77.9924H20.0656V174.985Z" fill="url(#paint1_linear_212_647)"/>
</g>
</g>
</g>
</g>
<defs>
<filter id="filter0_d_212_647" x="-198" y="-213" width="572" height="595" filterUnits="userSpaceOnUse" color-interpolation-filters="sRGB">
<feFlood flood-opacity="0" result="BackgroundImageFix"/>
<feColorMatrix in="SourceAlpha" type="matrix" values="0 0 0 0 0 0 0 0 0 0 0 0 0 0 0 0 0 0 127 0" result="hardAlpha"/>
<feOffset dy="66"/>
<feGaussianBlur stdDeviation="50"/>
<feComposite in2="hardAlpha" operator="out"/>
<feColorMatrix type="matrix" values="0 0 0 0 0 0 0 0 0 0 0 0 0 0 0 0 0 0 0.25 0"/>
<feBlend mode="normal" in2="BackgroundImageFix" result="effect1_dropShadow_212_647"/>
<feBlend mode="normal" in="SourceGraphic" in2="effect1_dropShadow_212_647" result="shape"/>
</filter>
<linearGradient id="paint0_linear_212_647" x1="88" y1="-179" x2="88" y2="216" gradientUnits="userSpaceOnUse">
<stop offset="0.244" stop-color="#3EB372"/>
<stop offset="0.825" stop-color="#197140"/>
</linearGradient>
<linearGradient id="paint1_linear_212_647" x1="88.0574" y1="0.398437" x2="88.0574" y2="194.383" gradientUnits="userSpaceOnUse">
<stop stop-color="#FFC201"/>
<stop offset="1" stop-color="#FFE9A4"/>
</linearGradient>
<clipPath id="clip0_212_647">
<rect width="1728" height="7757" fill="white" transform="translate(-776 -2136)"/>
</clipPath>
</defs>
</svg>
