<svg width="252" height="252" viewBox="0 0 252 252" fill="none" xmlns="http://www.w3.org/2000/svg">
<path d="M220.5 125.737C220.5 146.562 214.419 165.2 202.256 181.65C190.094 198.1 174.212 209.387 154.612 215.512C152.512 216.212 150.719 215.644 149.231 213.806C147.744 211.969 147 209.65 147 206.85C147 204.05 147.612 201.381 148.837 198.844C150.062 196.306 151.9 194.512 154.35 193.462C168 187.862 178.937 178.938 187.162 166.688C195.387 154.438 199.5 140.787 199.5 125.737C199.5 110.687 195.387 97.0375 187.162 84.7875C178.937 72.5375 168 63.6125 154.35 58.0125C151.9 56.9625 150.062 55.1687 148.837 52.6312C147.612 50.0938 147 47.425 147 44.625C147 41.825 147.919 39.5062 149.756 37.6687C151.594 35.8312 153.65 35.35 155.925 36.225C175.175 42.525 190.75 53.8562 202.65 70.2187C214.55 86.5812 220.5 105.087 220.5 125.737ZM73.5 157.5H42C39.025 157.5 36.5312 156.494 34.5187 154.481C32.5062 152.469 31.5 149.975 31.5 147V105C31.5 102.025 32.5062 99.5312 34.5187 97.5187C36.5312 95.5062 39.025 94.5 42 94.5H73.5L108.15 59.85C111.475 56.525 115.281 55.7812 119.569 57.6187C123.856 59.4562 126 62.7375 126 67.4625V184.537C126 189.262 123.856 192.544 119.569 194.381C115.281 196.219 111.475 195.475 108.15 192.15L73.5 157.5ZM147 158.55V92.925C147 91.875 147.262 90.8687 147.787 89.9062C148.312 88.9437 149.012 88.2875 149.887 87.9375C150.762 87.5875 151.637 87.4125 152.512 87.4125C153.387 87.4125 154.262 87.7625 155.137 88.4625C160.912 93.0125 165.375 98.5687 168.525 105.131C171.675 111.694 173.25 118.65 173.25 126C173.25 133.35 171.675 140.262 168.525 146.737C165.375 153.212 160.912 158.637 155.137 163.012C154.262 163.712 153.387 164.062 152.512 164.062C151.637 164.062 150.762 163.887 149.887 163.537C149.012 163.188 148.312 162.531 147.787 161.569C147.262 160.606 147 159.6 147 158.55ZM10.5 63V31.5C10.5 25.725 12.5562 20.7812 16.6687 16.6687C20.7812 12.5562 25.725 10.5 31.5 10.5H63C65.975 10.5 68.4687 11.5063 70.4812 13.5187C72.4937 15.5312 73.5 18.025 73.5 21C73.5 23.975 72.4937 26.4687 70.4812 28.4812C68.4687 30.4937 65.975 31.5 63 31.5H31.5V63C31.5 65.975 30.4937 68.4687 28.4812 70.4812C26.4687 72.4937 23.975 73.5 21 73.5C18.025 73.5 15.5312 72.4937 13.5187 70.4812C11.5063 68.4687 10.5 65.975 10.5 63ZM189 241.5C186.025 241.5 183.531 240.494 181.519 238.481C179.506 236.469 178.5 233.975 178.5 231C178.5 228.025 179.506 225.531 181.519 223.519C183.531 221.506 186.025 220.5 189 220.5H220.5V189C220.5 186.025 221.506 183.531 223.519 181.519C225.531 179.506 228.025 178.5 231 178.5C233.975 178.5 236.469 179.506 238.481 181.519C240.494 183.531 241.5 186.025 241.5 189V220.5C241.5 226.275 239.444 231.219 235.331 235.331C231.219 239.444 226.275 241.5 220.5 241.5H189Z" fill="url(#paint0_linear_363_684)"/>
<defs>
<linearGradient id="paint0_linear_363_684" x1="126" y1="10.5" x2="126" y2="241.5" gradientUnits="userSpaceOnUse">
<stop stop-color="#FFC201"/>
<stop offset="1" stop-color="#FFE9A4"/>
</linearGradient>
</defs>
</svg>
