<svg width="1024" height="1286" viewBox="0 0 1024 1286" fill="none" xmlns="http://www.w3.org/2000/svg">
<g filter="url(#filter0_f_2145_939)">
<path d="M1430.27 163.109C76.8293 648.288 -570.226 -70.504 -429.25 163.109C-288.273 396.721 -566.226 1335.5 -429.25 897.131C-292.273 458.765 1361.83 657.841 1534.33 793.076C1706.83 928.31 2783.72 -322.071 1430.27 163.109Z" fill="url(#paint0_linear_2145_939)" fill-opacity="0.7"/>
</g>
<g filter="url(#filter1_f_2145_939)">
<path d="M-395.817 385.939C957.627 871.118 1604.68 152.326 1463.71 385.939C1322.73 619.551 1600.68 1558.33 1463.71 1119.96C1326.73 681.595 -327.373 880.671 -499.873 1015.91C-672.373 1151.14 -1749.26 -99.2407 -395.817 385.939Z" fill="url(#paint1_linear_2145_939)" fill-opacity="0.7"/>
</g>
<defs>
<filter id="filter0_f_2145_939" x="-518.373" y="0.671875" width="2671.83" height="1061.54" filterUnits="userSpaceOnUse" color-interpolation-filters="sRGB">
<feFlood flood-opacity="0" result="BackgroundImageFix"/>
<feBlend mode="normal" in="SourceGraphic" in2="BackgroundImageFix" result="shape"/>
<feGaussianBlur stdDeviation="25" result="effect1_foregroundBlur_2145_939"/>
</filter>
<filter id="filter1_f_2145_939" x="-1119" y="223.502" width="2671.83" height="1061.54" filterUnits="userSpaceOnUse" color-interpolation-filters="sRGB">
<feFlood flood-opacity="0" result="BackgroundImageFix"/>
<feBlend mode="normal" in="SourceGraphic" in2="BackgroundImageFix" result="shape"/>
<feGaussianBlur stdDeviation="25" result="effect1_foregroundBlur_2145_939"/>
</filter>
<linearGradient id="paint0_linear_2145_939" x1="1430.27" y1="530.12" x2="-429.258" y2="530.12" gradientUnits="userSpaceOnUse">
<stop stop-color="#8AFFBE" stop-opacity="0"/>
<stop offset="1" stop-color="#FFC201"/>
</linearGradient>
<linearGradient id="paint1_linear_2145_939" x1="-395.81" y1="752.95" x2="1463.71" y2="752.95" gradientUnits="userSpaceOnUse">
<stop stop-color="#8AFFBE" stop-opacity="0"/>
<stop offset="1" stop-color="#FFC201"/>
</linearGradient>
</defs>
</svg>
